HIERARCHY
ROOT root
{
	OFFSET	0	13.1	24.9
	CHANNELS 6  Xposition Yposition Zposition Xrotation Yrotation Zrotation
	JOINT spine_1
	{
		OFFSET	0	9.99999	0
		CHANNELS 3  Xrotation Yrotation Zrotation
		JOINT spine_2
		{
			OFFSET	0	112	-10
			CHANNELS 3  Xrotation Yrotation Zrotation
			JOINT spine_3
			{
				OFFSET	0	206.5	19.3
				CHANNELS 3  Xrotation Yrotation Zrotation
				JOINT spine_4
				{
					OFFSET	0	110.4	14.6
					CHANNELS 3  Xrotation Yrotation Zrotation
					JOINT neck_1
					{
						OFFSET	0	71.8	-50.3
						CHANNELS 3  Xrotation Yrotation Zrotation
						JOINT neck_2
						{
							OFFSET	0	86.2	-25.8
							CHANNELS 3  Xrotation Yrotation Zrotation
							JOINT head_ee
							{
								OFFSET	0	179.8	-8.7
								CHANNELS 3  Xrotation Yrotation Zrotation
								End Site
								{
									OFFSET	1	0	0
								}
							}
						}
					}
					JOINT left_clavicle
					{
						OFFSET	-43.2	22.4	-70.8
						CHANNELS 3  Xrotation Yrotation Zrotation
						JOINT left_shoulder
						{
							OFFSET	-93.9	-5.79999	48.7
							CHANNELS 3  Xrotation Yrotation Zrotation
							JOINT left_elbow
							{
								OFFSET	-291.4	-30.8	15.2
								CHANNELS 3  Xrotation Yrotation Zrotation
								JOINT left_lowarm_twist
								{
									OFFSET	-110.7	-3.89999	13.6
									CHANNELS 3  Xrotation Yrotation Zrotation
									JOINT left_hand
									{
										OFFSET	-110.7	-3.89999	13.6
										CHANNELS 3  Xrotation Yrotation Zrotation
										JOINT left_ee
										{
											OFFSET	-80.8	-5.10001	12.1
											CHANNELS 3  Xrotation Yrotation Zrotation
											End Site
											{
												OFFSET	1	0	0
											}
										}
									}
								}
							}
						}
					}
					JOINT right_clavicle
					{
						OFFSET	43.2	22.4	-70.8
						CHANNELS 3  Xrotation Yrotation Zrotation
						JOINT right_shoulder
						{
							OFFSET	93.9	-5.79999	48.7
							CHANNELS 3  Xrotation Yrotation Zrotation
							JOINT right_elbow
							{
								OFFSET	291.4	-30.8	15.2
								CHANNELS 3  Xrotation Yrotation Zrotation
								JOINT right_lowarm_twist
								{
									OFFSET	110.7	-3.89999	13.6
									CHANNELS 3  Xrotation Yrotation Zrotation
									JOINT right_hand
									{
										OFFSET	110.7	-3.89999	13.6
										CHANNELS 3  Xrotation Yrotation Zrotation
										JOINT right_ee
										{
											OFFSET	80.8	-5.10001	12.1
											CHANNELS 3  Xrotation Yrotation Zrotation
											End Site
											{
												OFFSET	1	0	0
											}
										}
									}
								}
							}
						}
					}
				}
			}
		}
	}
	JOINT left_hip
	{
		OFFSET	-82.8	-127.5	0.300001
		CHANNELS 3  Xrotation Yrotation Zrotation
		JOINT left_knee
		{
			OFFSET	-28.2	-396.7	2.2
			CHANNELS 3  Xrotation Yrotation Zrotation
			JOINT left_ankle
			{
				OFFSET	-11.7	-411.3	35.4
				CHANNELS 3  Xrotation Yrotation Zrotation
				JOINT left_toes
				{
					OFFSET	0	-60	-88.6
					CHANNELS 3  Xrotation Yrotation Zrotation
					JOINT left_foot_ee
					{
						OFFSET	-22.5	-16.5	-42.2
						CHANNELS 3  Xrotation Yrotation Zrotation
						End Site
						{
							OFFSET	1	0	0
						}
					}
				}
			}
		}
	}
	JOINT right_hip
	{
		OFFSET	82.8	-127.5	0.300001
		CHANNELS 3  Xrotation Yrotation Zrotation
		JOINT right_knee
		{
			OFFSET	28.2	-396.7	2.2
			CHANNELS 3  Xrotation Yrotation Zrotation
			JOINT right_ankle
			{
				OFFSET	11.7	-411.3	35.4
				CHANNELS 3  Xrotation Yrotation Zrotation
				JOINT right_toes
				{
					OFFSET	0	-60	-88.6
					CHANNELS 3  Xrotation Yrotation Zrotation
					JOINT right_foot_ee
					{
						OFFSET	22.5	-16.5	-42.2
						CHANNELS 3  Xrotation Yrotation Zrotation
						End Site
						{
							OFFSET	1	0	0
						}
					}
				}
			}
		}
	}
}
MOTION
Frames: 12
Frame Time: 0.02
3512.73091501 723.827 -1524.29715942 -1.84820678054 58.8934690298 -0.669875969168 -0.535108 0.294307 0.584393 -0.534954 0.256525 0.601935 -0.532077 0.118322 0.643529 -0.532589 0.218469 0.616767 -15.2959 22.4087 10.1912 -16.4068 37.0796 17.6392 -0.0 0.0 -0.0 3.48114 19.9948 7.45831 -22.5537 -18.5865 57.667 2.20701 -47.5454 0.97225 -22.8374 -1.33698 2.57657 -1.9939 5.88379 -10.6482 -0.0 0.0 -0.0 13.4212 26.2003 -26.6289 -5.02088 25.9677 -65.4672 0.3293 9.265 -0.026683 75.7248 3.35503 8.35064 -0.101902 -26.0357 -9.72159 0.0 0.0 0.0 14.479 13.3304 -7.66317 -52.8544 -1.47974 7.69277 23.7375 22.1087 -3.29997 -17.4597 0.0 0.0 -0.0 0.0 -0.0 2.69639 -23.5629 2.62136 -14.2106 -0.31967 -2.15179 37.576 32.7715 5.8795 -3.73804 0.0 0.0 0.0 0.0 0.0 
3514.71777221 723.827 -1526.67314678 -1.73691224546 56.651955467 -0.801414049987 -0.535108 0.294307 0.584393 -0.534954 0.256525 0.601935 -0.532077 0.118322 0.643529 -0.532589 0.218469 0.616767 -15.2959 22.4087 10.1912 -16.4068 37.0796 17.6392 -0.0 0.0 -0.0 3.48114 19.9948 7.45831 -22.5537 -18.5865 57.667 2.20701 -47.5454 0.97225 -22.8374 -1.33698 2.57657 -1.9939 5.88379 -10.6482 -0.0 0.0 -0.0 13.4212 26.2003 -26.6289 -5.02088 25.9677 -65.4672 0.3293 9.265 -0.026683 75.7248 3.35503 8.35064 -0.101902 -26.0357 -9.72159 0.0 0.0 0.0 14.479 13.3304 -7.66317 -52.8544 -1.47974 7.69277 23.7375 22.1087 -3.29997 -17.4597 0.0 0.0 -0.0 0.0 -0.0 2.69639 -23.5629 2.62136 -14.2106 -0.31967 -2.15179 37.576 32.7715 5.8795 -3.73804 0.0 0.0 0.0 0.0 0.0 
3498.32301997 727.828 -1522.70021608 -10.7102585261 69.6280204097 7.48062711235 -0.0931121 0.343269 0.610468 -0.0929561 0.303728 0.631073 -0.0894342 0.16326 0.681063 -0.0899807 0.26877 0.646735 -15.1454 22.3895 8.155 -16.4707 38.1768 15.8026 -0.0 0.0 -0.0 3.98614 20.071 8.20884 -27.2424 -19.2745 57.6551 1.86461 -42.7236 0.729355 -24.7285 -1.49201 2.76279 -2.47706 5.39177 -14.1336 -0.0 0.0 -0.0 14.055 26.2802 -28.097 2.55356 22.382 -64.2233 0.395241 11.0781 -0.0383293 76.8425 3.47955 8.42185 0.925951 -21.4311 -14.1657 0.0 0.0 0.0 31.232 9.98458 -11.8051 -48.3931 -1.08512 7.1305 15.1486 24.5819 -2.20907 -14.3446 0.0 0.0 -0.0 0.0 -0.0 2.87146 -23.2435 0.58881 -7.90831 -0.24392 -1.18822 37.1338 30.8399 5.68702 -12.3063 0.0 0.0 0.0 0.0 0.0 
3497.61299816 727.828 -1521.55495561 -11.158772988 70.4707269518 7.9577635315 -0.0931121 0.343269 0.610468 -0.0929561 0.303728 0.631073 -0.0894342 0.16326 0.681063 -0.0899807 0.26877 0.646735 -15.1454 22.3895 8.155 -16.4707 38.1768 15.8026 -0.0 0.0 -0.0 3.98614 20.071 8.20884 -27.2424 -19.2745 57.6551 1.86461 -42.7236 0.729355 -24.7285 -1.49201 2.76279 -2.47706 5.39177 -14.1336 -0.0 0.0 -0.0 14.055 26.2802 -28.097 2.55356 22.382 -64.2233 0.395241 11.0781 -0.0383293 76.8425 3.47955 8.42185 0.925951 -21.4311 -14.1657 0.0 0.0 0.0 31.232 9.98458 -11.8051 -48.3931 -1.08512 7.1305 15.1486 24.5819 -2.20907 -14.3446 0.0 0.0 -0.0 0.0 -0.0 2.87146 -23.2435 0.58881 -7.90831 -0.24392 -1.18822 37.1338 30.8399 5.68702 -12.3063 0.0 0.0 0.0 0.0 0.0 
3481.13977541 733.025 -1516.11304846 -13.3062725605 73.6731608505 10.8105722522 0.101583 0.462201 0.357317 0.101547 0.438528 0.386004 0.104573 0.348473 0.468905 0.10451 0.418154 0.407986 -16.2796 21.11 5.64117 -17.8629 37.3454 13.4945 -0.0 0.0 -0.0 4.83763 22.5823 9.41286 -29.9531 -19.1456 57.706 1.48666 -36.3674 0.488346 -25.6232 -1.56749 2.8491 -2.18169 5.0145 -12.3253 -0.0 0.0 -0.0 14.2908 27.3129 -28.5141 4.54068 23.7863 -63.7738 0.482117 13.4324 -0.0567741 76.4591 3.43669 8.3977 1.21713 -17.1084 -14.5395 0.0 0.0 0.0 30.9234 10.2843 -12.1108 -47.7236 -1.02974 7.04357 8.83972 21.8365 -1.29931 -10.3654 0.0 0.0 -0.0 0.0 -0.0 2.61763 -23.0994 -0.0933514 -7.91783 -0.244114 -1.18966 37.2644 25.1827 5.34596 -10.6649 0.0 0.0 0.0 0.0 0.0 
3466.06789407 730.145 -1511.94098144 -13.348860364 75.9388536454 10.8577903555 0.360076 0.545926 0.350089 0.359992 0.522543 0.384119 0.363561 0.433226 0.482611 0.36359 0.504008 0.408135 -15.0387 20.9528 5.39154 -16.3684 36.9804 12.6802 -0.0 0.0 -0.0 4.05423 23.1963 8.29516 -30.4806 -19.6847 59.2466 1.29535 -32.6858 0.379853 -27.115 -1.69632 2.99039 -2.04717 5.09878 -11.3811 -0.0 0.0 -0.0 14.1913 27.3848 -28.2714 4.59823 24.2092 -63.8072 0.561756 15.5508 -0.076706 76.8045 3.4753 8.41947 1.2552 -15.8643 -14.3606 0.0 0.0 0.0 30.775 10.4343 -12.8631 -42.1987 -0.612539 6.3033 1.61735 16.6945 -0.238269 -8.67074 0.0 0.0 -0.0 0.0 -0.0 1.86513 -22.9969 -0.270529 -8.84524 -0.261884 -1.33087 36.0887 25.0048 5.2167 -9.59475 0.0 0.0 0.0 0.0 0.0 
3453.65925109 734.631 -1507.00177595 -15.0442225215 77.89347039 12.5767606204 0.465281 0.555194 0.354631 0.465194 0.531503 0.389241 0.468871 0.441852 0.488642 0.468906 0.513478 0.412728 -13.9422 20.3096 5.09334 -14.9897 35.7295 11.6995 -0.0 0.0 -0.0 3.31417 23.2936 7.26428 -30.0872 -20.873 61.3598 1.06218 -27.7514 0.262392 -29.1691 -1.87968 3.1794 -1.88685 5.06463 -10.3249 -0.0 0.0 -0.0 13.9368 27.1707 -27.7057 4.61399 24.2963 -63.8197 0.667229 18.2901 -0.107412 78.2053 3.63322 8.50538 1.56328 -11.0996 -14.7099 0.0 0.0 0.0 31.2063 12.3831 -14.0868 -33.2924 -0.0960594 5.03718 -9.83561 5.82814 1.46783 -5.35517 0.0 0.0 -0.0 0.0 -0.0 1.62304 -22.3564 0.599178 -9.4811 -0.272746 -1.42783 35.0839 25.7519 5.1512 -7.7386 0.0 0.0 0.0 0.0 0.0 
3443.25509713 738.291 -1506.26696014 -17.3364445145 77.3250139874 15.2931270575 0.675 0.570058 0.340353 0.674898 0.547246 0.375938 0.678549 0.461708 0.477109 0.678626 0.531264 0.398203 -12.229 19.985 5.14542 -12.9442 34.7554 10.9835 -0.0 0.0 -0.0 2.67974 24.0947 6.40934 -30.0942 -21.6457 62.5792 0.91666 -24.4218 0.198376 -29.8948 -1.94607 3.24459 -1.6651 5.82103 -8.49469 -0.0 0.0 -0.0 13.9691 27.3122 -27.7621 3.35312 25.937 -63.2347 0.861157 23.1025 -0.17601 78.3887 3.65406 8.51634 1.23021 -12.5401 -13.0396 0.0 0.0 0.0 28.7193 9.66782 -13.0921 -27.9791 0.11615 4.24969 -5.47965 4.1282 0.813614 -5.86795 0.0 0.0 -0.0 0.0 -0.0 1.5524 -22.6037 0.0970477 -8.71733 -0.259569 -1.31138 32.6062 25.8005 4.88102 -7.32613 0.0 0.0 0.0 0.0 0.0 
3431.77985485 740.33 -1501.87230997 -15.7171088051 76.8210259026 14.0783170972 0.602136 0.616434 0.375178 0.60202 0.591311 0.413644 0.606362 0.496755 0.523436 0.606439 0.573187 0.438415 -9.64215 20.5012 3.67372 -10.0591 36.1756 8.846 -0.0 0.0 -0.0 2.25561 24.4446 5.84775 -30.3582 -22.4346 64.4878 0.782012 -21.1756 0.146179 -30.4844 -2.00062 3.29695 -1.39738 5.03143 -7.08736 -0.0 0.0 -0.0 13.6062 26.7397 -26.9917 3.47644 26.787 -64.0565 0.933109 24.8077 -0.205227 78.716 3.69131 8.53574 1.53292 -9.9063 -14.0825 0.0 0.0 0.0 28.9202 7.92598 -13.0941 -20.5914 0.28814 3.12979 -5.09723 -1.63833 0.766179 -8.17003 0.0 0.0 -0.0 0.0 -0.0 0.548712 -22.0396 0.190938 -9.08003 -0.26602 -1.36666 32.7382 26.9994 4.96041 -7.54047 0.0 0.0 0.0 0.0 0.0 
3422.5919598 737.777 -1501.92619106 -16.6841521768 77.000596267 15.3139840545 0.775879 0.630242 0.376486 0.775754 0.605008 0.415827 0.780219 0.51134 0.526763 0.780315 0.588114 0.439396 -9.66607 19.6782 2.4813 -10.084 35.4147 7.48308 -0.0 0.0 -0.0 2.42402 24.0544 6.06032 -30.2446 -23.2213 65.7305 0.542572 -15.0443 0.0716449 -32.2072 -2.16306 3.44669 -1.29641 5.31964 -6.28913 -0.0 0.0 -0.0 13.4996 27.1152 -26.6962 3.69321 27.0892 -63.8653 1.03438 27.1301 -0.249583 80.9717 3.95104 8.66359 1.47481 -11.4779 -14.2606 0.0 0.0 0.0 26.4023 7.67227 -13.0163 -11.3002 0.297867 1.70582 -6.17526 -6.04931 0.946067 -8.9767 0.0 0.0 -0.0 0.0 -0.0 -0.676415 -21.3389 0.275974 -8.3259 -0.252215 -1.25176 32.8041 31.5414 5.24991 -7.74983 0.0 0.0 0.0 0.0 0.0 
3412.89725491 735.866 -1500.63962984 -15.9463124412 76.9665478407 14.8701305119 0.734325 0.690002 0.32944 0.734137 0.66764 0.372681 0.738537 0.580879 0.497209 0.738785 0.652113 0.399229 -8.91942 19.3531 1.08796 -9.23653 35.6088 5.79047 -0.0 0.0 -0.0 1.82973 23.9614 5.24842 -30.434 -23.9143 67.1088 0.533074 -14.7926 0.0691997 -32.814 -2.22134 3.49826 -1.11895 5.16049 -5.19081 -0.0 0.0 -0.0 13.5018 26.892 -26.7298 4.73054 27.3347 -63.5982 1.08295 28.211 -0.272136 81.1919 3.97666 8.67552 1.55362 -11.129 -14.6565 0.0 0.0 0.0 27.1364 7.67164 -13.2424 -5.99715 0.200055 0.898226 -7.66726 -8.56445 1.19262 -9.75575 0.0 0.0 -0.0 0.0 -0.0 -1.9896 -20.8722 0.248935 -8.18933 -0.249553 -1.23097 33.9413 31.6128 5.38865 -8.65012 0.0 0.0 0.0 0.0 0.0 
3412.63162874 735.866 -1498.9256406 -16.7013967109 77.5495578227 15.6442689015 0.734325 0.690002 0.32944 0.734137 0.66764 0.372681 0.738537 0.580879 0.497209 0.738785 0.652113 0.399229 -8.91942 19.3531 1.08796 -9.23653 35.6088 5.79047 -0.0 0.0 -0.0 1.82973 23.9614 5.24842 -30.434 -23.9143 67.1088 0.533074 -14.7926 0.0691997 -32.814 -2.22134 3.49826 -1.11895 5.16049 -5.19081 -0.0 0.0 -0.0 13.5018 26.892 -26.7298 4.73054 27.3347 -63.5982 1.08295 28.211 -0.272136 81.1919 3.97666 8.67552 1.55362 -11.129 -14.6565 0.0 0.0 0.0 27.1364 7.67164 -13.2424 -5.99715 0.200055 0.898226 -7.66726 -8.56445 1.19262 -9.75575 0.0 0.0 -0.0 0.0 -0.0 -1.9896 -20.8722 0.248935 -8.18933 -0.249553 -1.23097 33.9413 31.6128 5.38865 -8.65012 0.0 0.0 0.0 0.0 0.0 
